<?xml version="1.0" encoding="utf-8"?>
<!-- Generated by Mocodo 4.3.2 -->
<svg width="500" height="136" viewBox="0 0 500 136" xmlns="http://www.w3.org/2000/svg">
<rect x="0" y="0" width="500" height="136" fill="#ffffbf" stroke="none" stroke-width="0"/>

<!-- Association PROVIENT -->
<g>
	<line x1="221" y1="68" x2="114" y2="68" stroke="#f46d43" stroke-width="2"/>
	<line x1="29" y1="68" x2="114" y2="68" stroke="#f46d43" stroke-width="2"/>
	<g>
		<path d="M133 43 a14 14 90 0 1 14 14 V68 h-66 V57 a14 14 90 0 1 14 -14" fill="#fdae61" stroke="#fdae61" stroke-width="0"/>
		<path d="M147 68 v11 a14 14 90 0 1 -14 14 H95 a14 14 90 0 1 -14 -14 V68 H66" fill="#fee08b" stroke="#fee08b" stroke-width="0"/>
		<rect x="81" y="43" width="66" height="50" fill="none" rx="14" stroke="#f46d43" stroke-width="2"/>
		<line x1="81" y1="68" x2="147" y2="68" stroke="#f46d43" stroke-width="1"/>
		<text x="89" y="60.75" fill="#000000" font-family="Verdana" font-size="12">provient</text>
	</g>
	<text x="153" y="85" fill="#3288bd" font-family="Verdana" font-size="12">1,1</text>
	<text x="54" y="85" fill="#3288bd" font-family="Verdana" font-size="12">0,N</text>
</g>

<!-- Association POSSEDE -->
<g>
	<line x1="441" y1="68" x2="327" y2="68" stroke="#f46d43" stroke-width="2"/>
	<line x1="221" y1="68" x2="327" y2="68" stroke="#f46d43" stroke-width="2"/>
	<g>
		<path d="M345 43 a14 14 90 0 1 14 14 V68 h-64 V57 a14 14 90 0 1 14 -14" fill="#fdae61" stroke="#fdae61" stroke-width="0"/>
		<path d="M359 68 v11 a14 14 90 0 1 -14 14 H309 a14 14 90 0 1 -14 -14 V68 H64" fill="#fee08b" stroke="#fee08b" stroke-width="0"/>
		<rect x="295" y="43" width="64" height="50" fill="none" rx="14" stroke="#f46d43" stroke-width="2"/>
		<line x1="295" y1="68" x2="359" y2="68" stroke="#f46d43" stroke-width="1"/>
		<text x="302" y="60.75" fill="#000000" font-family="Verdana" font-size="12">possède</text>
	</g>
	<text x="364" y="85" fill="#3288bd" font-family="Verdana" font-size="12">0,N</text>
	<text x="268" y="85" fill="#3288bd" font-family="Verdana" font-size="12">1,N</text>
</g>

<!-- Entity PAYS -->
<g>
	<g>
		<rect x="9" y="43" width="40" height="25" fill="#abdda4" stroke="none" stroke-width="0" opacity="1"/>
		<rect x="9" y="68" width="40" height="25" fill="#e6f598" stroke="none" stroke-width="0" opacity="1"/>
		<rect x="9" y="43" width="40" height="50" fill="none" stroke="#66c2a5" stroke-width="2" opacity="1"/>
		<line x1="9" y1="68" x2="49" y2="68" stroke="#66c2a5" stroke-width="1"/>
	</g>
	<text x="15" y="60.75" fill="#000000" font-family="Verdana" font-size="12">pays</text>
	<text x="14" y="85.8" fill="#000000" font-family="Verdana" font-size="12">nom</text>
	<line x1="14" y1="88" x2="42" y2="88" stroke="#000000" stroke-width="1"/>
</g>

<!-- Entity CAFE -->
<g>
	<g>
		<rect x="179" y="9" width="84" height="25" fill="#abdda4" stroke="none" stroke-width="0" opacity="1"/>
		<rect x="179" y="34" width="84" height="93" fill="#e6f598" stroke="none" stroke-width="0" opacity="1"/>
		<rect x="179" y="9" width="84" height="118" fill="none" stroke="#66c2a5" stroke-width="2" opacity="1"/>
		<line x1="179" y1="34" x2="263" y2="34" stroke="#66c2a5" stroke-width="1"/>
	</g>
	<text x="208" y="26.75" fill="#000000" font-family="Verdana" font-size="12">café</text>
	<text x="184" y="51.8" fill="#000000" font-family="Verdana" font-size="12">réference</text>
	<line x1="184" y1="54" x2="242" y2="54" stroke="#000000" stroke-width="1"/>
	<text x="184" y="68.8" fill="#000000" font-family="Verdana" font-size="12">nom</text>
	<text x="184" y="85.8" fill="#000000" font-family="Verdana" font-size="12">description</text>
	<text x="184" y="102.8" fill="#000000" font-family="Verdana" font-size="12">prix</text>
	<text x="184" y="119.8" fill="#000000" font-family="Verdana" font-size="12">disponibilité</text>
</g>

<!-- Entity CARACTERISTIQUE -->
<g>
	<g>
		<rect x="391" y="43" width="100" height="25" fill="#abdda4" stroke="none" stroke-width="0" opacity="1"/>
		<rect x="391" y="68" width="100" height="25" fill="#e6f598" stroke="none" stroke-width="0" opacity="1"/>
		<rect x="391" y="43" width="100" height="50" fill="none" stroke="#66c2a5" stroke-width="2" opacity="1"/>
		<line x1="391" y1="68" x2="491" y2="68" stroke="#66c2a5" stroke-width="1"/>
	</g>
	<text x="396" y="60.75" fill="#000000" font-family="Verdana" font-size="12">caracteristique</text>
	<text x="396" y="85.8" fill="#000000" font-family="Verdana" font-size="12">libéllé</text>
	<line x1="396" y1="88" x2="432" y2="88" stroke="#000000" stroke-width="1"/>
</g>
</svg>